HIERARCHY
ROOT Hips
{
  OFFSET -4.35178 90.3298 111.633
  CHANNELS 6 Xposition Yposition Zposition Zrotation Xrotation Yrotation
  JOINT LeftUpLeg
  {
    OFFSET 0.103456 1.85784 10.5485
    CHANNELS 6 Xposition Yposition Zposition Zrotation Xrotation Yrotation
    JOINT LeftLeg
    {
      OFFSET 43.5 -4.2e-05 0
      CHANNELS 6 Xposition Yposition Zposition Zrotation Xrotation Yrotation
      JOINT LeftFoot
      {
        OFFSET 42.3722 1.9e-05 0
        CHANNELS 6 Xposition Yposition Zposition Zrotation Xrotation Yrotation
        JOINT LeftToe
        {
          OFFSET 17.3 0 0
          CHANNELS 6 Xposition Yposition Zposition Zrotation Xrotation Yrotation
          End Site
          {
            OFFSET 0 0 0
          }
        }
      }
    }
  }
  JOINT RightUpLeg
  {
    OFFSET 0.103456 1.85782 -10.5485
    CHANNELS 6 Xposition Yposition Zposition Zrotation Xrotation Yrotation
    JOINT RightLeg
    {
      OFFSET 43.5 -2.7e-05 0
      CHANNELS 6 Xposition Yposition Zposition Zrotation Xrotation Yrotation
      JOINT RightFoot
      {
        OFFSET 42.3723 0 0
        CHANNELS 6 Xposition Yposition Zposition Zrotation Xrotation Yrotation
        JOINT RightToe
        {
          OFFSET 17.3 0 1.7e-05
          CHANNELS 6 Xposition Yposition Zposition Zrotation Xrotation Yrotation
          End Site
          {
            OFFSET 0 0 0
          }
        }
      }
    }
  }
  JOINT Spine
  {
    OFFSET 6.90197 -2.60373 0
    CHANNELS 6 Xposition Yposition Zposition Zrotation Xrotation Yrotation
    JOINT Spine1
    {
      OFFSET 12.5881 0 0
      CHANNELS 6 Xposition Yposition Zposition Zrotation Xrotation Yrotation
      JOINT Spine2
      {
        OFFSET 12.3432 -1.8e-05 0
        CHANNELS 6 Xposition Yposition Zposition Zrotation Xrotation Yrotation
        JOINT Neck
        {
          OFFSET 25.8329 2.3e-05 0
          CHANNELS 6 Xposition Yposition Zposition Zrotation Xrotation Yrotation
          JOINT Head
          {
            OFFSET 11.7666 0 0
            CHANNELS 6 Xposition Yposition Zposition Zrotation Xrotation Yrotation
            End Site
            {
              OFFSET 0 0 0
            }
          }
        }
        JOINT LeftShoulder
        {
          OFFSET 19.7459 -1.48035 6.0001
          CHANNELS 6 Xposition Yposition Zposition Zrotation Xrotation Yrotation
          JOINT LeftArm
          {
            OFFSET 11.2841 1.8e-05 -2e-05
            CHANNELS 6 Xposition Yposition Zposition Zrotation Xrotation Yrotation
            JOINT LeftForeArm
            {
              OFFSET 33 -1.3e-05 1.9e-05
              CHANNELS 6 Xposition Yposition Zposition Zrotation Xrotation Yrotation
              JOINT LeftHand
              {
                OFFSET 25.2 3.2e-05 1.1e-05
                CHANNELS 6 Xposition Yposition Zposition Zrotation Xrotation Yrotation
                End Site
                {
                  OFFSET 0 0 0
                }
              }
            }
          }
        }
        JOINT RightShoulder
        {
          OFFSET 19.7461 -1.48036 -6.00008
          CHANNELS 6 Xposition Yposition Zposition Zrotation Xrotation Yrotation
          JOINT RightArm
          {
            OFFSET 11.2841 0 0
            CHANNELS 6 Xposition Yposition Zposition Zrotation Xrotation Yrotation
            JOINT RightForeArm
            {
              OFFSET 33.0001 1.6e-05 0
              CHANNELS 6 Xposition Yposition Zposition Zrotation Xrotation Yrotation
              JOINT RightHand
              {
                OFFSET 25.1998 0.000123 0.000432
                CHANNELS 6 Xposition Yposition Zposition Zrotation Xrotation Yrotation
                End Site
                {
                  OFFSET 0 0 0
                }
              }
            }
          }
        }
      }
    }
  }
}
MOTION
Frames:	5
Frame Time:	0.0333333
97.5609 87.9088 -188.638 91.8802 63.2194 4.05863 0.103456 1.85784 10.5485 10.3136 -0.252295 176.941 43.5 -4.2e-05 1e-05 -14.4169 -12.6713 -4.86736 42.3722 1.9e-05 0 78.2191 -25.915 8.89527 17.3 0 3e-06 21.4546 -1e-06 0.003093 0.103456 1.85782 -10.5485 0.209395 3.82941 174.772 43.5 -2.7e-05 4e-06 -23.0749 13.071 8.19752 42.3723 2.84217e-14 1e-05 91.7824 17.8491 -13.2952 17.3 -6e-06 1.7e-05 21.4546 -1.9e-05 -0.003116 6.90197 -2.60373 -3e-06 12.5725 0.0317892 -1.41342 12.5881 1e-05 8e-06 15.1341 -0.0839471 -2.78369 12.3432 -1.8e-05 -5e-06 14.8218 -0.029151 -2.75969 25.8329 2.3e-05 7e-06 6.84184 -1.27555 -3.93631 11.7666 -8e-06 -6e-06 -39.1885 -8.9816 12.0782 19.7459 -1.48035 6.0001 -174.064 21.8901 -87.9833 11.2841 1.8e-05 -2e-05 8.76634 -29.0919 67.7853 33 -1.3e-05 1.9e-05 -76.522 7.32102 -5.89111 25.2 3.2e-05 1.1e-05 -22.2893 45.5803 -10.4941 19.7461 -1.48036 -6.00008 -147.407 -35.59 87.5389 11.2841 -2.84217e-14 -1e-06 -12.5791 15.2611 -45.9063 33.0001 1.6e-05 -1e-06 -113.715 -9.29526 25.343 25.1998 0.000123 0.000432 -6.62905 -15.2441 10.5933 
97.2925 87.5656 -188.61 91.5695 62.0128 4.22239 0.103456 1.85784 10.5485 6.21508 1.02309 177.618 43.5 -4.2e-05 1e-05 -23.6737 -11.3043 -5.98177 42.3722 1.9e-05 0 79.9552 -26.3081 9.95875 17.3 0 3e-06 21.4546 -1e-06 0.003093 0.103456 1.85782 -10.5485 2.63139 4.1437 175.14 43.5 -2.7e-05 4e-06 -18.7057 13.5223 7.54108 42.3723 0 1e-05 92.8291 18.0793 -11.8869 17.3 -6e-06 1.7e-05 21.4546 -1.9e-05 -0.003116 6.90197 -2.60373 -3e-06 12.5334 -0.0583547 -1.32143 12.5881 1e-05 8e-06 15.0561 -0.241361 -2.58038 12.3432 -1.8e-05 -5e-06 14.7461 -0.174838 -2.54693 25.8329 2.3e-05 7e-06 6.78854 -1.30491 -4.05236 11.7666 -8e-06 -6e-06 -38.6576 -8.63656 11.7055 19.7459 -1.48035 6.0001 -174.412 21.2672 -87.7076 11.2841 1.8e-05 -2e-05 7.98076 -28.9631 67.185 33 -1.3e-05 1.9e-05 -77.0588 8.20494 -5.86957 25.2 3.2e-05 1.1e-05 -22.777 45.9526 -10.4835 19.7461 -1.48036 -6.00008 -147.636 -34.9038 86.6268 11.2841 0 -1e-06 -11.3853 15.3266 -46.1293 33.0001 1.6e-05 -1e-06 -113.545 -9.40661 25.4575 25.1998 0.000123 0.000432 -7.35461 -15.9002 11.1311 
96.8432 87.4318 -188.419 90.8438 61.2527 4.58295 0.103456 1.85784 10.5485 0.853333 1.53612 179.023 43.5 -4.2e-05 1e-05 -34.8555 -8.99785 -7.4232 42.3722 1.9e-05 -1.42109e-14 78.9602 -26.0248 11.441 17.3 2.84217e-14 3e-06 21.4546 -1e-06 0.003093 0.103456 1.85782 -10.5485 4.24448 4.39174 175.933 43.5 -2.7e-05 4e-06 -16.3844 13.9308 6.84263 42.3723 -2.84217e-14 1e-05 92.9275 17.3718 -11.7947 17.3 -6e-06 1.7e-05 21.4546 -1.9e-05 -0.003116 6.90197 -2.60373 -3e-06 12.4995 -0.0959199 -1.12784 12.5881 1e-05 8e-06 14.9886 -0.27122 -2.18768 12.3432 -1.8e-05 -5e-06 14.6785 -0.181324 -2.15306 25.8329 2.3e-05 7e-06 6.96831 -1.53097 -4.0081 11.7666 -8e-06 -6e-06 -38.3637 -8.35329 11.1352 19.7459 -1.48035 6.0001 -174.922 20.8059 -86.6541 11.2841 1.8e-05 -2e-05 7.31445 -28.5373 66.7935 33 -1.3e-05 1.9e-05 -77.0619 9.34769 -5.97512 25.2 3.2e-05 1.1e-05 -23.6402 45.8974 -10.1076 19.7461 -1.48036 -6.00008 -148.429 -34.2309 85.004 11.2841 0 -1e-06 -9.96962 15.7202 -46.2053 33.0001 1.6e-05 -1e-06 -112.705 -10.3797 25.2536 25.1998 0.000123 0.000432 -6.7714 -16.6972 11.6071 
96.2427 87.3317 -188.243 89.7456 60.9974 5.29231 0.103456 1.85784 10.5485 -5.14731 2.12777 179.834 43.5 -4.2e-05 1e-05 -46.2116 -7.01722 -6.30176 42.3722 1.9e-05 1.42109e-14 75.2498 -21.6081 12.4711 17.3 0 3e-06 21.4546 -1e-06 0.003093 0.103456 1.85782 -10.5485 5.93535 4.56385 176.496 43.5 -2.7e-05 4e-06 -14.5372 14.022 6.57675 42.3723 5.68434e-14 1e-05 93.113 17.8522 -11.4634 17.3 -6e-06 1.7e-05 21.4546 -1.9e-05 -0.003116 6.90197 -2.60373 -3e-06 12.6824 -0.189304 -0.955831 12.5881 1e-05 8e-06 15.3553 -0.415379 -1.82387 12.3432 -1.8e-05 -5e-06 15.0468 -0.297145 -1.78141 25.8329 2.3e-05 7e-06 6.94265 -1.56827 -4.08052 11.7666 -8e-06 -6e-06 -38.6273 -8.0384 10.8352 19.7459 -1.48035 6.0001 -174.909 20.7381 -86.2472 11.2841 1.8e-05 -2e-05 8.36271 -28.8412 67.6216 33 -1.3e-05 1.9e-05 -77.3801 9.86184 -5.9865 25.2 3.2e-05 1.1e-05 -23.5302 45.7259 -9.95353 19.7461 -1.48036 -6.00008 -148.799 -33.9148 84.1859 11.2841 0 -1e-06 -8.64339 17.1867 -46.3604 33.0001 1.6e-05 -1e-06 -112.157 -11.5367 24.9677 25.1998 0.000123 0.000432 -6.22368 -17.2184 11.8799 
95.752 87.2676 -188.055 88.6086 60.7517 6.11327 0.103456 1.85784 10.5485 -10.757 3.13865 179.872 43.5 -4.2e-05 1e-05 -54.8878 -6.43278 -3.83667 42.3722 1.9e-05 7.10543e-15 75.7991 -15.0226 13.0132 17.3 -2.84217e-14 3e-06 21.4546 -1e-06 0.003093 0.103456 1.85782 -10.5485 7.8688 3.81784 176.566 43.5 -2.7e-05 4e-06 -12.5668 14.1408 6.88837 42.3723 0 1e-05 92.9616 18.1394 -10.5651 17.3 -6e-06 1.7e-05 21.4546 -1.9e-05 -0.003116 6.90197 -2.60373 -3e-06 13.0302 -0.280522 -0.817104 12.5881 1e-05 8e-06 16.052 -0.560461 -1.52516 12.3432 -1.8e-05 -5e-06 15.7451 -0.412867 -1.47518 25.8329 2.3e-05 7e-06 6.76933 -1.50159 -4.19277 11.7666 -8e-06 -6e-06 -39.3799 -7.77444 10.6807 19.7459 -1.48035 6.0001 -174.633 20.9604 -86.3283 11.2841 1.8e-05 -2e-05 10.2805 -29.5199 69.0877 33 -1.3e-05 1.9e-05 -77.8859 9.53694 -5.89879 25.2 3.2e-05 1.1e-05 -23.428 45.6391 -9.97342 19.7461 -1.48036 -6.00008 -148.793 -33.8256 84.1858 11.2841 0 -1e-06 -7.4577 19.2484 -46.5416 33.0001 1.6e-05 -1e-06 -112.438 -12.1657 24.7756 25.1998 0.000123 0.000432 -6.09596 -16.967 11.6473 
